<svg width="234" height="47" viewBox="0 0 234 47" fill="none" xmlns="http://www.w3.org/2000/svg">
<path d="M44.702 2.476L29.264 46H15.996L0.558 2.476H11.842L22.63 35.336L33.48 2.476H44.702ZM83.2951 11.404V46H72.6931V41.288C71.6184 42.8173 70.1511 44.0573 68.2911 45.008C66.4724 45.9173 64.4471 46.372 62.2151 46.372C59.5697 46.372 57.2344 45.7933 55.2091 44.636C53.1837 43.4373 51.6131 41.722 50.4971 39.49C49.3811 37.258 48.8231 34.6333 48.8231 31.616V11.404H59.3631V30.19C59.3631 32.5047 59.9624 34.3027 61.1611 35.584C62.3597 36.8653 63.9717 37.506 65.9971 37.506C68.0637 37.506 69.6964 36.8653 70.8951 35.584C72.0937 34.3027 72.6931 32.5047 72.6931 30.19V11.404H83.2951ZM88.8024 28.64C88.8024 25.0853 89.4637 21.9647 90.7864 19.278C92.1504 16.5913 93.9897 14.5247 96.3044 13.078C98.6191 11.6313 101.202 10.908 104.054 10.908C106.493 10.908 108.622 11.404 110.44 12.396C112.3 13.388 113.726 14.69 114.718 16.302V11.404H125.32V46H114.718V41.102C113.685 42.714 112.238 44.016 110.378 45.008C108.56 46 106.431 46.496 103.992 46.496C101.182 46.496 98.6191 45.7727 96.3044 44.326C93.9897 42.838 92.1504 40.7507 90.7864 38.064C89.4637 35.336 88.8024 32.1947 88.8024 28.64ZM114.718 28.702C114.718 26.0567 113.974 23.9693 112.486 22.44C111.04 20.9107 109.262 20.146 107.154 20.146C105.046 20.146 103.248 20.9107 101.76 22.44C100.314 23.928 99.5904 25.9947 99.5904 28.64C99.5904 31.2853 100.314 33.3933 101.76 34.964C103.248 36.4933 105.046 37.258 107.154 37.258C109.262 37.258 111.04 36.4933 112.486 34.964C113.974 33.4347 114.718 31.3473 114.718 28.702ZM155.162 28.64C155.162 25.0853 155.823 21.9647 157.146 19.278C158.51 16.5913 160.349 14.5247 162.664 13.078C164.978 11.6313 167.562 10.908 170.414 10.908C172.687 10.908 174.754 11.3833 176.614 12.334C178.515 13.2847 180.003 14.566 181.078 16.178V0.119999H191.68V46H181.078V41.04C180.086 42.6933 178.66 44.016 176.8 45.008C174.981 46 172.852 46.496 170.414 46.496C167.562 46.496 164.978 45.7727 162.664 44.326C160.349 42.838 158.51 40.7507 157.146 38.064C155.823 35.336 155.162 32.1947 155.162 28.64ZM181.078 28.702C181.078 26.0567 180.334 23.9693 178.846 22.44C177.399 20.9107 175.622 20.146 173.514 20.146C171.406 20.146 169.608 20.9107 168.12 22.44C166.673 23.928 165.95 25.9947 165.95 28.64C165.95 31.2853 166.673 33.3933 168.12 34.964C169.608 36.4933 171.406 37.258 173.514 37.258C175.622 37.258 177.399 36.4933 178.846 34.964C180.334 33.4347 181.078 31.3473 181.078 28.702ZM197.242 28.64C197.242 25.0853 197.903 21.9647 199.226 19.278C200.59 16.5913 202.429 14.5247 204.744 13.078C207.059 11.6313 209.642 10.908 212.494 10.908C214.933 10.908 217.061 11.404 218.88 12.396C220.74 13.388 222.166 14.69 223.158 16.302V11.404H233.76V46H223.158V41.102C222.125 42.714 220.678 44.016 218.818 45.008C216.999 46 214.871 46.496 212.432 46.496C209.621 46.496 207.059 45.7727 204.744 44.326C202.429 42.838 200.59 40.7507 199.226 38.064C197.903 35.336 197.242 32.1947 197.242 28.64ZM223.158 28.702C223.158 26.0567 222.414 23.9693 220.926 22.44C219.479 20.9107 217.702 20.146 215.594 20.146C213.486 20.146 211.688 20.9107 210.2 22.44C208.753 23.928 208.03 25.9947 208.03 28.64C208.03 31.2853 208.753 33.3933 210.2 34.964C211.688 36.4933 213.486 37.258 215.594 37.258C217.702 37.258 219.479 36.4933 220.926 34.964C222.414 33.4347 223.158 31.3473 223.158 28.702Z" fill="#393939"/>
<path d="M146.94 0.925996L145.7 30.624H136.71L135.47 0.925996H146.94ZM141.36 46.496C139.5 46.496 137.971 45.9587 136.772 44.884C135.615 43.768 135.036 42.404 135.036 40.792C135.036 39.1387 135.615 37.754 136.772 36.638C137.971 35.522 139.5 34.964 141.36 34.964C143.179 34.964 144.667 35.522 145.824 36.638C147.023 37.754 147.622 39.1387 147.622 40.792C147.622 42.404 147.023 43.768 145.824 44.884C144.667 45.9587 143.179 46.496 141.36 46.496Z" fill="#6941C6"/>
</svg>
